<?xml version="1.0" encoding="UTF-8"?>
<svg version="1.1" viewBox="0 0 980 1140" width="1280" height="1280" xmlns="http://www.w3.org/2000/svg">

<path transform="translate(478,68)" d="m0 0h30l19 4 15 5 15 8 14 10 15 14 8 10 7 11 8 16 5 15 3 14 1 9v12l-3 15-7 21-10 22-8 14-5 6v2l21 6 25 10 25 12 20 11 24 16 13 10 14 12 13 12 13 13 7 8 10 12 12 16 10 15 11 19 10 19 13 32 9 29 5 21 4 24 2 17 1 18v21l-2 28-4 27-6 27-8 26-8 21-14 29-11 19-10 15-10 14-13 16-9 10-26 26-11 9-17 13-18 12-21 12-15 8-16 7-15 6-24 8-23 6-22 4-26 3-19 1h-16l-27-2-29-4-16-3-26-7-27-10-18-8-16-8-18-10-15-10-11-8-16-12-16-15-12-11-7-8-12-13-15-20-14-21-10-17-11-22-10-25-9-27-6-25-4-24-2-15-1-14v-30l2-27 5-31 8-32 8-24 9-21 8-17 13-23 10-15 14-19 13-15 11-12 15-15 11-9 13-11 10-7 19-13 11-6 18-10 27-12 26-9 13-4-2-5-8-14-10-21-7-20-4-18v-17l4-20 5-15 8-16 10-14 14-15 11-9 14-9 16-7 14-4z" fill="#02BADD"/>
<path transform="translate(76,890)" d="m0 0 116 1 14 3 15 6 11 8 12 12 8 7 11 10 12 9 10 7 21 12 15 7 20 8 27 9 28 7 36 6 30 3 14 1h28l38-3 35-5 34-8 35-12 21-9 14-7 20-12 14-10 11-9 20-20 10-8 10-6 16-5 7-1 118-1 5 2v1l-41 9-34 8-30 9-21 9-16 9-13 10-10 9-13 10-11 8-15 10-14 8-25 12-34 13-28 8-24 5-39 6-20 2h-66l-37-4-37-7-27-7-24-8-13-6-15-6-16-8-11-6-17-11-21-16-13-11-14-11-18-10-25-9-29-8-33-8-35-8-1-3z" fill="#ffb700"/>
<path transform="translate(789,522)" d="m0 0 4 1 4 11 7 29v5l-18 11-15 9-14 8-16 8-23 11-28 9-22 5-18 3-30 2-67 2-19 2-25 5-20 6-17 8-18 11-16 12-20 14-21 12-26 14-29 14-25 10-36 12-33 10-23 5h-8l-9-15v-3l29-7 25-7 25-9 35-16 31-15 22-14 16-11 16-12 23-15 15-9 15-8 22-8 16-4 22-2 13-1 36-1 33-2 23-4 18-5 23-10 15-8 23-13 28-16 40-24z" fill="#FDFDFD"/>
<path transform="translate(787,716)" d="m0 0h5l-1 6-8 21-3 3-14 1h-83l-23 1-16 3-16 5-21 10-15 9-21 16-12 9-16 13-18 12-15 9-15 7-25 8-24 7-50 14-45 15-13 5h-6l-16-10-17-12-2-4 8-3 26-8 42-11 44-12 32-11 28-12 15-8 19-13 12-9 18-14 17-12 19-11 20-8 17-4 20-3 101-2 33-4z" fill="#FDFDFD"/>
<path transform="translate(773,483)" d="m0 0 5 1 8 17-4 4-27 14-22 13-15 9-23 14-24 14-25 13-25 9-15 3-39 3h-50l-19 2-25 6-15 6-16 8-18 10-31 21-11 8-13 9-24 15-23 12-19 9-33 13-34 11-24 6-5 1h-7l-4-8-2-5v-5l5-2 24-6 36-12 25-10 29-14 15-9 25-17 20-14 16-12 14-10 17-11 12-7 17-8 25-8 17-4 17-3 55-5 52-5 21-4 19-6 17-7 22-11 23-15 16-10 34-20z" fill="#FDFDFD"/>
<path transform="translate(799,660)" d="m0 0h6l-2 16-3 15-4 4-30 5-24 3-15 1-92 1-27 4-24 7-16 7-16 10-20 14-21 16-16 11-17 11-16 8-24 9-40 12-41 11-36 12-35 12-2 1h-6l-23-23 1-2 19-5 29-8 42-12 36-13 24-9 29-14 25-13 11-7 14-10 27-18 16-8 18-8 19-6 29-4 54-3 54-5 24-3 29-5 29-8z" fill="#FDFDFD"/>
<path transform="translate(803,589)" d="m0 0 4 1 1 20v26l-6 4-33 11-26 6-17 3-41 5-30 2-62 4-22 3-25 5-17 5-17 8-17 11-12 9-15 11-22 14-23 13-25 12-31 12-41 13-32 9-44 11-9 1-7-8-6-8 1-4 31-8 52-16 46-18 30-14 24-13 17-11 16-11 14-10 15-10 16-9 21-7 20-3 34-2 62-2 34-3 23-5 23-7 20-8 25-12 22-12 13-8z" fill="#FDFDFD"/>
<path transform="translate(732,418)" d="m0 0 4 1 10 10-2 4-18 11-15 9-13 8-21 11-20 8-20 6-31 5-62 5-49 6-20 4-27 9-16 8-12 7-17 11-24 16-17 12-18 13-34 24-16 10-13 8-19 10-18 10-24 9-22 6-10 2h-7l-1-1-1-14 5-3 16-5 18-7 29-14 14-8 48-32 19-14 15-11 13-9 15-11 20-13 27-16 22-11 30-10 19-5 24-4 67-7 20-3 32-8 26-8 39-15z" fill="#FDFDFD"/>
<path transform="translate(756,449)" d="m0 0 3 1 6 9 2 2v4l-23 12-23 14-21 13-23 13-16 8-17 7-25 7-18 3-108 10-23 5-18 6-25 12-16 9-19 12-14 10-33 22-19 12-44 24-23 11-25 10-21 7-20 5h-5l-3-9-1-6 9-3 17-4 28-8 15-6 16-8 14-8 17-10 12-8 20-14 21-16 16-12 36-26 19-12 27-14 19-8 16-4 24-3 64-6 27-3 28-4 27-6 25-9 24-12 24-14z" fill="#FDFDFD"/>
<path transform="translate(686,765)" d="m0 0h85l-1 5-11 18-3 3-13-1-11-1h-27l-21 3-17 6-16 8-22 14-14 11-12 9-13 10-16 12-16 11-14 8-21 10-21 7-50 11-24 7-20 6-9-2-24-8-19-8v-3l31-11 34-9 30-7 32-8 29-11 23-12 15-11 14-10 15-12 13-10 24-16 15-8 17-6 26-4z" fill="#FDFDFD"/>
<path transform="translate(665,358)" d="m0 0 6 1 12 8v4l-27 11-29 11-25 8-24 6-22 4-40 4-22 2-29 4-22 6-23 8-16 7-24 14-21 14-21 16-18 13-21 16-36 24-16 10-21 12-28 14-12 5h-6l2-12 4-22 2-4 27-15 25-15 22-14 24-16 51-36 19-12 17-10 17-8 18-6 25-5 28-3 90-7 29-6 22-6 33-13z" fill="#FDFDFD"/>
<path transform="translate(699,384)" d="m0 0 5 1 11 9v2l4 2 1 4-8 4-22 9-33 13-29 9-31 7-28 4-49 5-34 5-21 5-20 8-30 14-16 9-16 10-23 16-24 16-11 8-22 15-20 14-23 15-18 10-16 8-25 10-19 7-4-1v-18l2-2 21-7 18-8 16-8 20-11 19-12 19-13 14-10 17-12 17-13 14-11 18-14 16-11 17-10 21-9 33-11 26-5 30-4 21-2 35-6 31-7 21-6 34-12 31-12z" fill="#FDFDFD"/>
<path transform="translate(704,808)" d="m0 0h39v3l-11 14-12 13-8 8-17 12-9 7-10 8-10 9-10 7-22 12-19 9-21 8-24 7-24 5-16 2-13 1h-52l-20-2-1-2 10-3 44-8 26-6 21-7 21-11 18-12 12-10 14-11 13-11 14-11 15-11 14-8 16-7 16-4z" fill="#FDFDFD"/>
<path transform="translate(621,333)" d="m0 0 7 1 16 8v4l-24 10-18 7-28 9-29 6-55 6-38 3-25 3-32 7-25 9-17 9-17 11-22 14-13 9-22 15-18 12-20 13-17 11-20 12-6 4h-2l1-6 4-8 5-13 10-19 8-6 22-13 14-9 17-12 16-13 13-10 18-12 12-7 15-6 19-5 65-1 38-2 34-4 22-4 28-7 17-5 26-11z" fill="#FDFDFD"/>
<path transform="translate(569,315)" d="m0 0 9 1 16 4 3 3-6 3-16 6-19 7-36 10-25 5-28 3-40 2-62 1-19 5-18 8-15 9-43 30-12 8-14 9h-2l2-4 7-8 8-8 7-8 14-14 11-9 16-13 21-14 2-1 12 1 34 3h55l33-4 27-5 22-6 21-8 25-11z" fill="#FDFDFD"/>
<path transform="translate(494,305)" d="m0 0h25l17 2v3l-28 11-25 7-28 5-18 2-18 1h-54l-5-2 1-2 39-2 23-3 27-6 20-6z" fill="#FDFDFD"/>
<path transform="translate(418,195)" d="m0 0 9 1 9 6 5 8 3 8 1 5v8l-5 5-6 1-16-4-7-6-2-5v-9l4-13z" fill="#FDFDFD"/>
<path transform="translate(488,88)" d="m0 0 9 1 7 4v2l3 1 7 11v5l-7 6-13 4h-9l-12-5-6-7 2-6 6-8 6-5z" fill="#FDFDFD"/>
<path transform="translate(486,239)" d="m0 0h10l12 4 6 6-1 7-7 9-5 4-6 3h-7l-10-5-7-6-4-7 1-7 10-6z" fill="#FDFDFD"/>
<path transform="translate(557,195)" d="m0 0h6l6 7 3 8v13l-4 6-5 4-9 3-11 1-5-4-1-3v-8l2-10 6-9 6-5z" fill="#FDFDFD"/>
<path transform="translate(427,124)" d="m0 0h12l5 5v13l-5 12-9 8-7 3h-6l-5-7-2-5-1-6v-10l5-7 10-5z" fill="#FDFDFD"/>
<path transform="translate(542,124)" d="m0 0h12l12 5 5 6 1 2v13l-5 12-4 3-7-1-10-6-6-8-3-9v-11z" fill="#FDFDFD"/>
<path transform="translate(534,167)" d="m0 0 9 1 9 6 3 3 1 4-3 5-10 7-9 1-4-4-3-8 2-10z" fill="#FDFDFD"/>
<path transform="translate(441,167)" d="m0 0h6l4 4 3 8-1 8-6 7h-6l-10-6-5-5 1-7 7-6z" fill="#FDFDFD"/>
<path transform="translate(461,210)" d="m0 0 8 1 7 4 5 7-1 5-7 6-10 4-5-1-3-4-2-12 2-6 3-3z" fill="#FDFDFD"/>
<path transform="translate(460,124)" d="m0 0 8 1 8 4 4 4 1 6-8 9-4 2h-10l-4-3-1-3v-14l4-5z" fill="#FDFDFD"/>
<path transform="translate(515,124)" d="m0 0h7l4 5 1 3v12l-4 6-7 1-8-3-7-8-1-4 6-7z" fill="#FDFDFD"/>
<path transform="translate(514,210)" d="m0 0h8l4 4 1 5v10l-3 6-1 1h-7l-12-6-3-4 1-7 4-5z" fill="#FDFDFD"/>
<path transform="translate(424,243)" d="m0 0 8 2 18 8 12 9 6 5 1 3-7-1-22-12-15-9-2-4z" fill="#FDFDFD"/>
<path transform="translate(555,243)" d="m0 0 4 2-5 4-28 16-9 5h-4l1-4 11-9 10-6 16-7z" fill="#FDFDFD"/>
<path transform="translate(463,91)" d="m0 0h6l-1 3-11 8-14 8-14 6h-6l4-5 25-14z" fill="#FDFDFD"/>
<path transform="translate(511,90)" d="m0 0 7 1 21 12 12 6 5 5v2l-7-1-14-6-14-9-10-8z" fill="#FDFDFD"/>
<path transform="translate(578,156)" d="m0 0 3 1v48l-3-1-3-12v-24z" fill="#FDFDFD"/>
<path transform="translate(400,156)" d="m0 0 3 2 3 15v15l-2 14-2 3h-2l-1-26z" fill="#FDFDFD"/>
<path transform="translate(489,141)" d="m0 0 5 1 4 5 1 5-2 2-9 1-6-3 1-5 4-5z" fill="#FDFDFD"/>
<path transform="translate(460,158)" d="m0 0h8l3 2-1 6-5 6h-5l-4-6v-6z" fill="#FDFDFD"/>
<path transform="translate(460,187)" d="m0 0 5 1 6 9-1 4-1 1h-8l-5-3 1-7z" fill="#FDFDFD"/>
<path transform="translate(513,158)" d="m0 0h9l4 3-2 6-4 5h-5l-5-8 1-5z" fill="#FDFDFD"/>
<path transform="translate(517,187)" d="m0 0 5 1 3 6v6l-4 2h-9l-1-1v-5z" fill="#FDFDFD"/>
<path transform="translate(487,206)" d="m0 0h9l3 3-2 5-5 5-5-1-4-5-1-5z" fill="#FDFDFD"/>
<path transform="translate(512,175)" d="m0 0 4 2-1 7-4-1-1-1v-5z" fill="#FDFDFD"/>
<path transform="translate(474,197)" d="m0 0 7 1 3 3v2h-6l-4-4z" fill="#FDFDFD"/>
<path transform="translate(501,197)" d="m0 0 4 1-1 5-4 1-2-1 1-5z" fill="#FDFDFD"/>
<path transform="translate(479,157)" d="m0 0 4 1-1 4-7 1v-4z" fill="#FDFDFD"/>
<path transform="translate(500,157)" d="m0 0 5 1 1 4-1 1-7-1v-4z" fill="#FDFDFD"/>
<path transform="translate(466,176)" d="m0 0 5 1-1 6-5-1z" fill="#FDFDFD"/>
</svg>
