<?xml version="1.0" encoding="UTF-8"?>
<svg version="1.1" viewBox="0 0 1835 2048" width="1280" height="1280" xmlns="http://www.w3.org/2000/svg">
<path transform="translate(0)" d="m0 0h1835v2048h-1835z" fill="#FDFDFD"/>
<path transform="translate(591,346)" d="m0 0h666l8 7 13 13 7 8 12 12 7 8 14 14 7 8 7 7 7 8 16 16 7 8 17 17 7 8 9 9 7 8 17 17 7 8 22 22 7 8 11 11 7 8 8 8 7 8 17 17 7 8 10 10 7 8 16 17 13 13-1 6-14 30-13 28-15 32-11 24-19 41-15 32-13 28-11 24-2 2h-43l-10-2-10-6-25-25-7-8-5-5-1-3h-2l-7-8-25-25-7-8-12-12-7-8-14-14-7-8-11-11-7-8-9-9v-2h-2l-7-8-15-15-7-8-15-16-17-17-2-4h-2l-7-8-9-9v-2h-2l-7-8-12-12-7-8-18-18-7-8-8-8-7-8-14-14-3-2 1-8 14-59 1-8-8-3-30-7-20-3h-14l-9 2-6 4-4 2-8-8-7-8-12-13-11-8-8-3h-17l-14 7-12 11-15 14-17 16-12 12-8 7-9 9-8 7-8 6-2-7-4-48-1-2-19 3-42 9-15 5-6 4-4 5-1 10 3 16 9 31 13 38-1 5-10 9-13 12-19 19-8 7-15 14-17 16-14 14-8 7-14 13-8 7-28 28-8 7-12 12-8 7-8 8-8 7-9 9-8 7-14 14-8 7-7 7-8 7-16 16-8 7-3 2 2-6 10-21 7-18-1-4-14-10-15-11-14-9-21-13-24-15-18-11-12-7-4 1-13 22-13 24-8 17-2 9 5 5 10 7 19 10 22 12 68 34-1 3-10 8-12 11-15 15-8 11-2 7v52l-2 1-29-7-49-9-29-4h-18l-5 10-4 17-3 20-1 10v10l2 5 16 4 56 9 57 8 8 1 1 1v111l-15 4-42 9-31 7-37 8-17 4 12 40 8 20 6 9 2 1h8l30-8 62-15 10-2h4l-1 135-11 8-14 9-10 7-12 9-3 4 1 10 1 7-202-1-11-6-7-7-6-12-1-8v-621l2-14 6-10 9-10 18-18 8-7 7-7 8-7 15-15 8-7 12-12 8-7 8-8 8-7 7-7 8-7 17-17 8-7 11-11 8-7 7-7 8-7 18-18 8-7 12-12 8-7 11-11 8-7 14-14 8-7 12-12 8-7 8-8 8-7 11-11 8-7 14-14 8-7 9-9 8-7 9-9 8-7 17-17 8-7 11-11 8-7 14-14z" fill="#00B7D6"/>
<path transform="translate(908,784)" d="m0 0h18l30 2 28 4 30 7 20 6 25 10 19 9 24 14 15 10 16 12 11 9 15 14 5 4 7 8 7 7 9 11 16 21 14 22 9 16 13 28 7 19 6 19 6 26 4 28 2 34v14l-1 20-3 24-4 22-8 30-9 24-11 24-11 21-12 19-14 19-12 14-11 12-7 8-10 9-11 10-16 12-17 12-26 15-21 10-26 10-29 9-22 5-29 4-17 1h-31l-20-1-29-4-15-3-25-7-27-10-12-5-23-11-22-13-17-12-13-10-13-11-13-12-7-7-7-8-9-10-7-9-13-18-8-13-10-17-13-27-7-18-8-24-7-30-4-28-1-12v-41l2-22 4-26 7-30 11-33 13-28 13-23 7-11 10-14 10-13 9-11h2l2-4 14-15 11-10 11-9 7-6 15-11 17-11 21-12 16-8 19-8 24-8 28-7 23-4 18-2z" fill="#00B7D6"/>
<path transform="translate(911,711)" d="m0 0 37 1 31 3 29 5 32 8 31 11 25 11 17 8 16 9 21 13 18 13 16 12 11 10 8 7 10 9 9 9 7 8 12 13 15 20 12 17 9 15 10 17 9 17 12 27 12 36 8 31 5 31 2 16 1 15v54l-3 31-4 24-7 30-11 33-8 19-12 25-11 21-15 24-13 17-9 12-10 11-7 8-15 16-10 9-12 11-14 11-13 10-13 9-18 11-16 9-24 12-19 8-36 12-28 7-30 5-28 3-16 1h-28l-37-3-33-5-30-7-23-7-26-10-28-13-15-8-25-15-28-21-11-9-10-9-12-11-19-19v-2h-2l-9-11-11-13-8-11-9-13-8-13-13-23-11-22-11-26-9-27-8-31-5-27-3-25-1-15v-44l3-33 4-24 8-33 8-26 9-24 17-35 14-24 12-18 14-19 9-11 10-11 14-16 8-7 13-12 11-9 17-13 18-13 27-16 15-8 31-14 37-13 33-8 25-4 15-2zm-3 73-27 2-27 4-26 6-26 8-24 10-16 8-16 9-16 10-14 10-12 9-11 10-8 7-10 9-11 12v2l-3 1-9 11-15 20-9 14-10 17-9 17-10 23-10 30-7 30-4 26-2 22v41l3 28 5 26 7 26 10 28 7 15 14 27 12 19 13 18 11 13 9 10 11 12 7 7 8 7 16 13 11 8 10 7 20 12 21 11 24 10 25 9 30 8 28 4 8 1 20 1h31l25-2 26-4 24-6 36-12 27-12 17-9 21-13 19-14 11-9 24-22 7-8 9-10 11-14 13-18 15-25 11-22 8-19 7-19 8-30 4-22 3-24 1-20v-14l-2-34-4-28-6-26-11-33-9-20-8-16-10-18-12-18-16-21-12-14-9-9-4-5-8-7-12-11-17-13-17-12-24-14-19-10-27-11-19-6-29-7-24-4-21-2-18-1z" fill="#FDD407"/>
<path transform="translate(936,27)" d="m0 0h8l11 4 9 6 23 23 7 8 10 10 7 8 8 8 7 8 13 13 7 8 21 21 7 8 10 10 7 8 9 9 7 8 19 19 7 8 11 11 7 8 7 7 7 8 12 12 7 8 16 17 1 2h-547l2-4 34-32 7-7 8-7 15-15 8-7 18-18 8-7 15-14 15-15 8-7 12-12 8-7 8-8 8-7 17-17 8-7 7-7 8-7 10-10 8-7 17-17 8-7 9-8 7-4z" fill="#00B7D6"/>
<path transform="translate(1124,1597)" d="m0 0h22l4 5 8 16 7 16 8 24 7 30 2 12v5h-517l-9-1v-10l5-26 8-26 6-16 11-23 3-3 135-1 189-1z" fill="#FED406"/>
<path transform="translate(656,1760)" d="m0 0h525v9l-6 29-8 26-8 18-5 8h-466l-7-2-7-15-7-19-6-20-6-28v-5z" fill="#FED406"/>
<path transform="translate(1313,230)" d="m0 0h19l105 3 20 1 12 2 3 3v48l-4 142-1 45-2 5-7 6-7-1-11-9-140-140v-41l2-49 2-10 5-4z" fill="#00B7D6"/>
<path transform="translate(1594,700)" d="m0 0 4 2 12 13 12 12 7 8 18 18 7 8 11 11 7 8 9 9 7 8 15 15v2h2l7 8 20 20 9 11 5 10 1 5v8l-4 12-7 9-11 7-5 2-7 1h-211l-4-1 2-6 8-16 17-36 12-26 38-82 15-32z" fill="#00B7D6"/>
<path transform="translate(1093,1897)" d="m0 0h30l-2 5-15 16-10 10-11 9-13 10-21 13-18 10-27 11-24 7-26 5-31 3h-11l-24-2-30-5-22-6-17-6-20-9-23-13-15-10-14-11-20-18v-2l-4-2-6-6v-2l-3-1-3-5z" fill="#FED406"/>
<path transform="translate(632,1141)" d="m0 0h136l2 4 3 29 5 27 7 27 11 33 6 13v4h-126l-5-5-11-20-11-26-7-21-6-26-4-28z" fill="#FDFDFD"/>
<path transform="translate(736,974)" d="m0 0h60l2 1-1 5-12 36-6 22-5 26-3 21-2 27-2 2h-134l-1-1v-11l4-28 6-26 8-24 10-23 9-17 6-9z" fill="#FDFDFD"/>
<path transform="translate(1086,1141)" d="m0 0h120v9l-4 29-6 26-9 27-9 20-9 17-5 8-2 1h-110l5-13 9-24 8-28 6-27 4-30 1-12z" fill="#FDFDFD"/>
<path transform="translate(1078,974)" d="m0 0h69l15 1 5 6 12 22 11 27 7 23 5 24 4 29v7l-3 1h-116l-1-1-3-34-4-26-6-27-9-30-7-17-1-4z" fill="#FDFDFD"/>
<path transform="translate(832,974)" d="m0 0h76l7 1 1 1v137l-1 1h-119v-14l2-21 4-24 6-25 7-23 11-28 3-4z" fill="#FDFDFD"/>
<path transform="translate(958,974)" d="m0 0h58l10 1 4 6 10 26 8 27 6 28 4 29 1 9v13l-1 1h-114l-2-1v-138z" fill="#FDFDFD"/>
<path transform="translate(840,1140)" d="m0 0h35l40 1 1 1v135l-1 1h-82l-5-8-11-27-8-25-7-30-4-25-2-21 1-1z" fill="#FDFDFD"/>
<path transform="translate(970,1140)" d="m0 0h44l44 1 1 5-4 31-6 29-7 24-8 23-8 19-4 6h-79l-1-1v-136z" fill="#FDFDFD"/>
<path transform="translate(817,483)" d="m0 0 3 1 1 2 5 61 7 48 5 26v11l-4 5-12 5-27 7-18 4-5-1-12-36-8-22-13-40-6-22-2-12 1-10 7-8 12-5 26-6 33-7z" fill="#FDD409"/>
<path transform="translate(374,747)" d="m0 0 5 1 17 10 19 12 42 26 16 11 20 15 4 4-3 10-10 23-6 12h-2l-1 5-8 14-8-1-70-35-22-12-20-11-10-8-1-5 6-15 14-27 14-24z" fill="#FDD40A"/>
<path transform="translate(1011,483)" d="m0 0h14l20 3 30 7 8 3 1 4-12 52-5 18-5 21-9 27-8 16-6 5-14-1-32-4-10-5-4-5v-16l3-34 6-48 4-24 2-11 6-5 5-2z" fill="#FDD407"/>
<path transform="translate(1251,558)" d="m0 0 11 6 18 11 19 12 16 12 8 7 1 1-1 7-11 19-13 19-14 20-14 19-10 14-14 19-4 4-4-2-18-14-14-11-13-10-11-8 1-5 8-14 14-26 13-23 16-30 12-22z" fill="#FDD40B"/>
<path transform="translate(1239,1501)" d="m0 0 4 2 7 7 9 11 12 14 9 11 12 14 15 20 12 18 5 10-1 5-12 13-13 11-20 14-14 10-5 3h-3l-12-20-24-38-13-21-9-15-11-19-5-10 1-5 7-6 21-14 16-9z" fill="#FED406"/>
<path transform="translate(1365,1343)" d="m0 0h7l18 6 21 10 23 13 19 10 13 8 14 9 10 7 1 3-5 12-9 16-12 17-8 10-7 8-5 3-5-1-16-8-18-11-17-12-18-13-18-14-12-10-7-9-2-4v-8l5-11 8-15 6-8 6-5z" fill="#FED406"/>
<path transform="translate(566,577)" d="m0 0 4 1 8 9 38 57 17 28 10 20-1 6-9 10-9 8-12 9-15 10-5 3-4-2-7-8-9-11-8-10-13-16-11-13-11-14-13-16-16-22 2-5 11-10 12-9 20-14 14-8z" fill="#FDD40A"/>
<path transform="translate(599,1503)" d="m0 0 5 1 16 12 13 10 14 11 7 7-1 6-10 19-24 38-13 20-19 29-8 12-4 1-11-9-13-10-15-13-14-14-7-9 1-7 8-12 10-13 9-11 8-10 11-13 8-10 14-17 9-11z" fill="#FED406"/>
<path transform="translate(1545,934)" d="m0 0 3 3 6 31 3 18v16l-4 8-7 6-12 5-23 5-29 4-65 8h-8l-1-1-8-56-1-8 7-3 98-25z" fill="#FED406"/>
<path transform="translate(1442,728)" d="m0 0 4 1 8 9 10 15 9 15 6 15 1 7-6 7-20 15-15 10-32 21-22 14-15 10-4 3-4-1-15-20-13-20-10-17 1-5 13-11 11-8 18-13 23-16 17-11 24-15z" fill="#FDD40B"/>
<path transform="translate(286,976)" d="m0 0h18l35 5 43 8 29 7 9 4 3 2v13l-2 21-3 19-3 14-2 2h-9l-57-8-56-9-16-4-2-2-1-4v-10l3-24 4-19 4-11z" fill="#FDD409"/>
<path transform="translate(476,1359)" d="m0 0 7 6 7 7 9 11 8 13 4 9-1 5-9 11-15 15-11 9-17 14-20 15-19 12-10 5-5 2h-6l-9-6-10-12-11-18-5-10-2-9v-6l6-7 11-8 15-10 20-13 21-13 21-12z" fill="#FDD407"/>
<path transform="translate(411,1183)" d="m0 0h4l4 16 8 38 3 13v6l-19 4-16 4-50 12-38 10h-8l-5-5-6-10-7-19-9-30-1-7 13-4 35-8 34-7 39-9z" fill="#FDD409"/>
<path transform="translate(1434,1162)" d="m0 0h32l44 4 28 4 21 5 4 2-1 14-4 26-6 25-4 12-2 2-12-2-44-10-42-11-23-8-8-6-3-4-2-7v-22l2-9 6-9 10-5z" fill="#FED406"/>
<path transform="translate(695,1305)" d="m0 0h119l5 5 14 25 14 22 26 36 13 16v4l-28-5-28-8-27-10-26-13-18-11-11-8-14-11-10-9-8-7-9-10-12-13z" fill="#FDFDFD"/>
<path transform="translate(876,843)" d="m0 0h7l-6 7-13 17-9 11-10 14-10 15-9 15-12 21-5 5h-113v-3l14-15 7-8 8-7 10-9 20-15 15-10 16-9 19-9 24-9 22-6z" fill="#FDFDFD"/>
<path transform="translate(1040,1305)" d="m0 0h103l-2 4-11 12-7 8-7 7-8 7-15 12-14 10-21 13-17 9-31 12-18 6-17 4h-5l2-4 9-10 14-19 22-33 8-13 13-23z" fill="#FDFDFD"/>
<path transform="translate(975,845)" d="m0 0 24 6 27 9 19 8 23 13 15 10 14 10 15 13 8 8 2 1v2l3 1 7 8 10 11v2l-21 1h-75l-5-5-11-20-13-21-11-16-9-12-10-13-8-10-5-5z" fill="#FDFDFD"/>
<path transform="translate(914,850)" d="m0 0 2 1v95l-3 2h-70l-1-2 8-13 9-15 16-23 11-14 24-28z" fill="#FDFDFD"/>
<path transform="translate(942,854)" d="m0 0 4 1 12 12 8 10 11 14 13 18 13 21 9 14v3l-2 1h-66l-2-2z" fill="#FDFDFD"/>
<path transform="translate(863,1305)" d="m0 0h51l2 2v94l-4-1-14-17-14-19-12-17-12-18-12-20-1-3z" fill="#FDFDFD"/>
<path transform="translate(944,1305)" d="m0 0h64l-1 4-11 19-14 21-12 17-13 17-7 8-6 7-2-1v-90z" fill="#FDFDFD"/>
</svg>
